<svg xmlns="http://www.w3.org/2000/svg" viewBox="0 0 100 100" role="img" aria-label="decipher.ms">
  <rect width="100" height="100" fill="#020617" />
  <g transform="translate(14.282 80.858) scale(0.08158 -0.08158)">
    <path d="M460 85Q451 60 457.0 51.5Q463 43 472 43Q481 43 495.0 53.5Q509 64 525 106L546 162H565L540 89Q526 47 502.5 25.0Q479 3 451.5 -5.5Q424 -14 397 -14Q333 -14 307 24Q293 45 292.5 78.5Q292 112 306 158L441 667Q451 701 439.0 717.0Q427 733 378 733L385 754Q467 755 532.0 765.5Q597 776 656 795ZM210 48Q222 48 239.5 65.0Q257 82 278.0 120.5Q299 159 321.0 222.0Q343 285 364 376L349 268Q320 176 291.5 113.0Q263 50 225.0 18.0Q187 -14 128 -14Q94 -14 64.5 1.0Q35 16 17.0 48.0Q-1 80 -1 132Q-1 176 13.0 229.5Q27 283 54.5 336.0Q82 389 123.0 434.0Q164 479 217.5 506.0Q271 533 338 533Q377 533 389.5 520.5Q402 508 405 488L397 468Q393 488 387.0 499.0Q381 510 361 510Q343 510 320.0 488.5Q297 467 273.5 428.0Q250 389 230.0 338.0Q210 287 198.0 227.5Q186 168 186 105Q186 77 191.0 62.5Q196 48 210 48Z" fill="#ffffff" />
  </g>
  <circle cx="79.0" cy="71.0" r="8.5" fill="#2563eb" />
</svg>
